<svg height="512pt" viewBox="0 0 512 512" width="512pt" xmlns="http://www.w3.org/2000/svg"><path d="m501.121094 330c-31.746094 105.300781-129.46875 182-245.121094 182-141.386719 0-256-114.613281-256-256s114.613281-256 256-256c118.5625 0 218.28125 80.605469 247.394531 190h-3.394531c-5.523438 0-10 4.476562-10 10v120c0 5.523438 4.476562 10 10 10zm0 0" fill="#0680ae"/><path d="m260 350h-210c-5.523438 0-10-4.476562-10-10v-120c0-5.523438 4.476562-10 10-10h210c5.523438 0 10 4.476562 10 10v120c0 5.523438-4.476562 10-10 10zm0 0" fill="#0db2cc"/><path d="m260 350h-180c-5.523438 0-10-4.476562-10-10v-120c0-5.523438 4.476562-10 10-10h180c5.523438 0 10 4.476562 10 10v120c0 5.523438-4.476562 10-10 10zm0 0" fill="#03bdd6"/><path d="m150 285c0 24.851562-20.148438 45-45 45s-45-20.148438-45-45 20.148438-45 45-45 45 20.148438 45 45zm98-23h-76c-1.105469 0-2 .894531-2 2v11c0 1.105469.894531 2 2 2h76c1.105469 0 2-.894531 2-2v-11c0-1.105469-.894531-2-2-2zm-15.832031 30h-60.167969c-1.105469 0-2 .894531-2 2v11c0 1.105469.894531 2 2 2h60.167969c1.101562 0 2-.894531 2-2v-11c0-1.105469-.898438-2-2-2zm0 0" fill="#0198b0"/><path d="m290 430h-160c-5.523438 0-10-4.476562-10-10v-90c0-5.523438 4.476562-10 10-10h160c5.523438 0 10 4.476562 10 10v90c0 5.523438-4.476562 10-10 10zm0 0" fill="#ade8f0"/><path d="m290 430h-140c-5.523438 0-10-4.476562-10-10v-90c0-5.523438 4.476562-10 10-10h140c5.523438 0 10 4.476562 10 10v90c0 5.523438-4.476562 10-10 10zm0 0" fill="#d3f1f5"/><path d="m230 407.5c0 4.140625-3.359375 7.5-7.5 7.5s-7.5-3.359375-7.5-7.5 3.359375-7.5 7.5-7.5 7.5 3.359375 7.5 7.5zm17.5-7.5c-4.140625 0-7.5 3.359375-7.5 7.5s3.359375 7.5 7.5 7.5 7.5-3.359375 7.5-7.5-3.359375-7.5-7.5-7.5zm25 0c-4.140625 0-7.5 3.359375-7.5 7.5s3.359375 7.5 7.5 7.5 7.5-3.359375 7.5-7.5-3.359375-7.5-7.5-7.5zm-44.5-60h-90.167969c-1.101562 0-2 .894531-2 2v11c0 1.105469.898438 2 2 2h90.167969c1.105469 0 2-.894531 2-2v-11c0-1.105469-.894531-2-2-2zm-60 30h-30.167969c-1.101562 0-2 .894531-2 2v11c0 1.105469.898438 2 2 2h30.167969c1.105469 0 2-.894531 2-2v-11c0-1.105469-.894531-2-2-2zm0 0" fill="#2ed0e1"/><path d="m330 190h173.394531c5.601563 21.058594 8.605469 43.175781 8.605469 66 0 25.730469-3.8125 50.570312-10.878906 74h-171.121094c-5.523438 0-10-4.476562-10-10v-120c0-5.523438 4.476562-10 10-10zm0 0" fill="#a1e52e"/><path d="m358 330h-28c-5.523438 0-10-4.476562-10-10v-120c0-5.523438 4.476562-10 10-10h28c-5.523438 0-10 4.476562-10 10v120c0 5.523438 4.476562 10 10 10zm0 0" fill="#7ecd00"/><path d="m450 274.503906v5c0 2.757813-2.238281 5-5 5h-20.496094v20.496094c0 2.761719-2.242187 5-5 5h-5c-2.761718 0-5-2.238281-5-5v-20.496094h-20.5c-2.761718 0-5-2.242187-5-5v-5c0-2.761718 2.238282-5 5-5h20.5v-20.5c0-2.761718 2.238282-5 5-5h5c2.757813 0 5 2.238282 5 5v20.5h20.496094c2.761719 0 5 2.234375 5 5zm0 0" fill="#6bae01"/><path d="m400 390h-80v-15.847656c0-11.84375 3.507812-23.425782 10.078125-33.28125l25.761719-38.644532c1.980468-2.96875 6.339844-2.96875 8.320312 0l25.761719 38.644532c6.570313 9.855468 10.078125 21.4375 10.078125 33.28125zm0 0" fill="#fbc56d"/><path d="m400 375.984375v91.691406c-24.050781 16.394531-51.027344 28.800781-80 36.257813v-127.949219c0-11.042969 8.953125-20 20-20s20 8.957031 20 20c0-11.042969 8.953125-20 20-20s20 8.957031 20 20zm0 0" fill="#fc6930"/><path d="m360 375.984375v113.992187c-12.816406 5.707032-26.179688 10.402344-40 13.957032v-127.949219c0-11.042969 8.953125-20 20-20s20 8.957031 20 20zm0 0" fill="#fc5426"/><path d="m346.667969 315.984375 9.171875-13.757813c1.980468-2.96875 6.339844-2.96875 8.320312 0l9.175782 13.757813zm0 0" fill="#024c67"/><path d="m360 250h-290c-5.523438 0-10-4.476562-10-10v-180c0-5.523438 4.476562-10 10-10h290c5.523438 0 10 4.476562 10 10v180c0 5.523438-4.476562 10-10 10zm0 0" fill="#ffe899"/><path d="m370 60v208.378906c0 6.417969-5.203125 11.621094-11.621094 11.621094-5.003906 0-9.445312-3.199219-11.027344-7.945312l-7.351562-22.054688h-250c-5.523438 0-10-4.476562-10-10v-180c0-5.523438 4.476562-10 10-10h270c5.523438 0 10 4.476562 10 10zm0 0" fill="#fff2b4"/><path d="m235.832031 110.5v-11c0-1.105469.898438-2 2-2h60.167969c1.105469 0 2 .894531 2 2v11c0 1.105469-.894531 2-2 2h-60.167969c-1.101562 0-2-.894531-2-2zm92.167969 17h-90.167969c-1.101562 0-2 .894531-2 2v11c0 1.105469.898438 2 2 2h90.167969c1.105469 0 2-.894531 2-2v-11c0-1.105469-.894531-2-2-2zm0 30h-90.167969c-1.101562 0-2 .894531-2 2v11c0 1.105469.898438 2 2 2h90.167969c1.105469 0 2-.894531 2-2v-11c0-1.105469-.894531-2-2-2zm-60 30h-30.167969c-1.101562 0-2 .894531-2 2v11c0 1.105469.898438 2 2 2h30.167969c1.105469 0 2-.894531 2-2v-11c0-1.105469-.894531-2-2-2zm-58-97.5h-100c-5.523438 0-10 4.476562-10 10v100c0 5.523438 4.476562 10 10 10h100c5.523438 0 10-4.476562 10-10v-100c0-5.523438-4.476562-10-10-10zm0 0" fill="#fbc56d"/><path d="m110 120c0-11.046875 8.953125-20 20-20s20 8.953125 20 20-8.953125 20-20 20-20-8.953125-20-20zm98.914062 23.304688-7.84375-10.261719c-2.113281-2.765625-6.277343-2.765625-8.390624 0l-31.136719 40.738281c-2.113281 2.765625-6.277344 2.765625-8.390625 0l-10.011719-13.101562c-2.117187-2.765626-6.28125-2.765626-8.394531 0l-23.5625 30.832031c-2.65625 3.476562-.175782 8.488281 4.195312 8.488281h89.339844c2.917969 0 5.28125-2.363281 5.28125-5.28125v-48.207031c0-1.15625-.382812-2.285157-1.085938-3.207031zm0 0" fill="#ffe899"/></svg>